<svg width="44" height="44" viewBox="0 0 44 44" fill="none" xmlns="http://www.w3.org/2000/svg">
<rect width="44" height="44" rx="22" fill="black"/>
<path d="M14.472 30.188C14.264 30.268 14.032 30.34 13.776 30.404C13.552 30.468 13.28 30.516 12.96 30.548C12.656 30.596 12.32 30.62 11.952 30.62C11.2 30.62 10.64 30.436 10.272 30.068C9.904 29.7 9.72 29.212 9.72 28.604C9.72 28.38 9.744 28.156 9.792 27.932L12.6 13.58L15.312 13.1L12.528 27.668C12.512 27.748 12.496 27.82 12.48 27.884C12.48 27.932 12.48 27.988 12.48 28.052C12.48 28.452 12.696 28.652 13.128 28.652C13.464 28.652 13.76 28.628 14.016 28.58C14.288 28.516 14.44 28.476 14.472 28.46V30.188ZM33.7389 21.476C33.7389 22.1 33.6589 22.716 33.4989 23.324C33.3389 23.932 33.1549 24.516 32.9469 25.076C32.7549 25.636 32.5789 26.18 32.4189 26.708C32.2589 27.22 32.1789 27.716 32.1789 28.196C32.1789 28.516 32.1949 28.892 32.2269 29.324C32.2589 29.74 32.3149 30.132 32.3949 30.5H29.7069C29.6589 30.228 29.6269 29.98 29.6109 29.756C29.6109 29.516 29.6109 29.284 29.6109 29.06C29.6109 28.436 29.6829 27.82 29.8269 27.212C29.9709 26.604 30.1309 26.004 30.3069 25.412C30.4829 24.82 30.6429 24.244 30.7869 23.684C30.9309 23.124 31.0029 22.588 31.0029 22.076C31.0029 21.692 30.9149 21.372 30.7389 21.116C30.5789 20.844 30.2829 20.708 29.8509 20.708C29.4989 20.708 29.1389 20.876 28.7709 21.212C28.4029 21.532 28.0589 21.956 27.7389 22.484C27.4189 22.996 27.1309 23.572 26.8749 24.212C26.6189 24.852 26.4349 25.492 26.3229 26.132L25.4829 30.5H22.7949L23.9949 24.452C24.0909 23.988 24.1629 23.54 24.2109 23.108C24.2589 22.66 24.2829 22.316 24.2829 22.076C24.2829 21.692 24.1949 21.372 24.0189 21.116C23.8589 20.844 23.5629 20.708 23.1309 20.708C22.7789 20.708 22.4189 20.876 22.0509 21.212C21.6829 21.532 21.3309 21.956 20.9949 22.484C20.6749 22.996 20.3869 23.58 20.1309 24.236C19.8749 24.876 19.6909 25.516 19.5789 26.156L18.7389 30.5H16.0509L17.2749 24.452C17.3709 23.988 17.4349 23.556 17.4669 23.156C17.5149 22.756 17.5389 22.396 17.5389 22.076C17.5389 21.196 17.4589 20.556 17.2989 20.156C17.1389 19.756 17.0189 19.492 16.9389 19.364L19.1229 18.5C19.2989 18.724 19.4429 18.996 19.5549 19.316C19.6829 19.636 19.7469 20.044 19.7469 20.54C19.7469 20.876 19.7149 21.236 19.6509 21.62C19.6029 22.004 19.5629 22.38 19.5309 22.748L19.8909 21.836C20.3229 20.732 20.8909 19.908 21.5949 19.364C22.3149 18.82 23.1069 18.548 23.9709 18.548C24.9149 18.548 25.6269 18.796 26.1069 19.292C26.6029 19.788 26.8669 20.452 26.8989 21.284C27.7949 19.46 29.0669 18.548 30.7149 18.548C31.7229 18.548 32.4749 18.812 32.9709 19.34C33.4829 19.868 33.7389 20.58 33.7389 21.476Z" fill="white"/>
</svg>
